# xmcd
#
# Track frame offsets:
#	150
#	15898
#	34500
#	51191
#	67276
#	83810
#	100292
#	116685
#	133531
#	150176
#	167407
#	181991
#	196774
#	212635
#	228207
#	245440
#	260987
#	286791
#	311250
#
# Disc length: 4502 seconds
#
# Revision: 1
# Processed by: cddbd v1.5.1PL0 Copyright (c) Steve Scherf et al.
# Submitted via: CDex 1.50Beta5
#
DISCID=f2119413
DTITLE=2 UNLIMITED - THE COMPLETE BEST OF
DYEAR=1900
DGENRE=Electronica and Dance
TTITLE0=NO LIMIT
TTITLE1=トワイライト・ゾーン
TTITLE2=ゲット・レディ
TTITLE3=WORKAHOLIC
TTITLE4=TRIBAL DANCE
TTITLE5=リアル・シング
TTITLE6=ビート・コントロール(シングル・ヴァージョン)
TTITLE7=THE MAGIC FRIEND
TTITLE8=MAXIMUN OVERDRIVER
TTITLE9=グッド・フォー・ミー
TTITLE10=WANNA GET UP
TTITLE11=HERE I GO
TTITLE12=FACES
TTITLE13=ノー・ワン
TTITLE14=THE EDGE OF HEAVEN
TTITLE15=NO LIMIT 2003 VERSION
TTITLE16=TWILIGHT ZONE RAVE VERSION
TTITLE17=ゲット・レディ(オーケストラル・ミックス)
TTITLE18=WORKAHOLIC EXTENDED MIX
EXTD=
EXTT0=
EXTT1=
EXTT2=
EXTT3=
EXTT4=
EXTT5=
EXTT6=
EXTT7=
EXTT8=
EXTT9=
EXTT10=
EXTT11=
EXTT12=
EXTT13=
EXTT14=
EXTT15=
EXTT16=
EXTT17=
EXTT18=
PLAYORDER=
